<?xml version="1.0" encoding="utf-8"?>
<!-- Generator: Adobe Illustrator 21.1.0, SVG Export Plug-In . SVG Version: 6.00 Build 0)  -->
<svg version="1.0" id="Layer_1" xmlns="http://www.w3.org/2000/svg" xmlns:xlink="http://www.w3.org/1999/xlink" x="0px" y="0px"
	 viewBox="0 0 833.1 406" style="enable-background:new 0 0 833.1 406;" xml:space="preserve">
<style type="text/css">
	.st0{fill:none;}
	.st1{fill:#F8A41D;}
	.st2{fill:#008ACB;}
	.st3{fill:#00B360;}
	.st4{fill:#FFD800;}
	.st5{fill:#B1B1B1;}
	.st6{fill:#EA2C42;}
	.st7{fill:#FFFFFF;}
	.st8{fill:none;stroke:#0044EC;stroke-width:0;stroke-linecap:round;stroke-linejoin:round;}
</style>
<g>
	<path class="st0" d="M300.1,175.5C300.1,175.5,300.1,175.5,300.1,175.5c0.6-5.5,1.4-10.9,2.5-16.1
		C301.3,164.7,300.6,170.1,300.1,175.5z"/>
	<path class="st0" d="M480.6,50.8c17.2,3.2,33.8,9.3,49.1,17.6C514.8,60,498.2,54,480.6,50.8z"/>
	<path class="st0" d="M377.2,228.5c4.1,7.9,7.1,16.4,8.9,25.4v-25.4H377.2z"/>
	<path class="st0" d="M294.4,305.8h-9.2c1.5,0.2,3,0.3,4.6,0.3C291.3,306.2,292.8,306,294.4,305.8z"/>
	<path class="st0" d="M484.1,38.6c33,6.8,63.4,23.5,87.4,47.1C548.1,62.1,517.9,45.3,484.1,38.6z"/>
	<path class="st0" d="M330.8,85.7c24-23.6,54.3-40.3,87.4-47.1C384.3,45.3,354.1,62.1,330.8,85.7z"/>
	<path class="st0" d="M484.1,38.6c-10.7-2.2-21.7-3.4-33-3.4c-11.3,0-22.3,1.2-33,3.4c10.7-2.1,21.7-3.2,33-3.2
		C462.4,35.4,473.4,36.5,484.1,38.6z"/>
	<path class="st0" d="M289.7,240.2c-1.5,0-3.1,0.1-4.5,0.3h9.1C292.8,240.4,291.3,240.2,289.7,240.2z"/>
	<path class="st0" d="M480.6,50.8C471,49,461.2,48,451.1,48c-10.1,0-19.9,1-29.5,2.7c9.5-1.7,19.4-2.7,29.5-2.7
		C461.2,48.1,471,49,480.6,50.8z"/>
	<path class="st0" d="M617,240.6c-1.5-0.2-3-0.3-4.5-0.3c-1.5,0-3.1,0.1-4.5,0.3H617z"/>
	<path class="st0" d="M617.1,305.8h-9.2c1.5,0.2,3,0.3,4.6,0.3C614.1,306.2,615.6,306,617.1,305.8z"/>
	<path class="st1" d="M529.7,68.3C514.4,60,497.8,54,480.6,50.8c-9.5-1.7-19.4-2.7-29.5-2.7c-10.1,0-19.9,0.9-29.5,2.7
		c-2.3,0.4-4.6,0.9-6.8,1.4c-56.4,12.8-100.4,54.6-112.3,107.2c-1,5.2-1.9,10.6-2.5,16.1c4.2,0.4,8.3,1.1,12.3,2.1
		c13.4-64.9,70.5-113.8,138.8-113.8c68.3,0,125.4,48.9,138.8,113.8c4-1,8.2-1.7,12.4-2.1C597.9,130,569.9,90.8,529.7,68.3z"/>
	<path class="st2" d="M451.1,19.2c95.1,0,173.1,69.4,181.4,157.9c7.3,1.5,14.2,3.8,20.8,6.9C639.9,80.1,554.6,0,451.1,0
		C347.7,0,262.3,80.1,248.8,183.9c6.6-3,13.6-5.3,20.8-6.9C278,88.5,356,19.2,451.1,19.2z"/>
	<path class="st3" d="M451.1,19.2C356,19.2,278,88.5,269.7,177c3.7-0.8,7.6-1.3,11.4-1.7c7.4-34.7,25.3-65.7,49.7-89.6
		c23.4-23.6,53.6-40.4,87.4-47.1c10.7-2.2,21.7-3.4,33-3.4c11.3,0,22.3,1.2,33,3.4c33.8,6.7,64,23.5,87.4,47.1
		c24.4,23.9,42.2,54.9,49.7,89.6c3.9,0.3,7.7,0.9,11.4,1.7C624.2,88.5,546.2,19.2,451.1,19.2z"/>
	<path class="st4" d="M571.5,85.7c-24-23.6-54.3-40.3-87.4-47.1c-10.7-2.1-21.7-3.2-33-3.2c-11.3,0-22.3,1.1-33,3.2
		c-33,6.8-63.4,23.5-87.4,47.1c-24.4,23.9-42.2,54.9-49.7,89.6c2.8-0.2,5.7-0.4,8.6-0.4c3.5,0,6.9,0.2,10.3,0.5
		c0.5-5.5,1.3-10.9,2.5-16.1c11.9-52.7,55.9-94.5,112.3-107.2c2.2-0.5,4.5-1,6.8-1.4C431.2,49,441,48,451.1,48
		c10.1,0,19.9,1,29.5,2.7c17.7,3.2,34.2,9.2,49.1,17.6c40.3,22.5,68.2,61.7,72.6,107.2c3.4-0.3,6.8-0.5,10.2-0.5
		c2.9,0,5.8,0.1,8.6,0.4C613.7,140.6,595.8,109.7,571.5,85.7z"/>
	<path class="st5" d="M451.1,71.3c-67.4,0-122.6,48.8-126.4,110.1c3,1.1,5.9,2.4,8.7,3.8c3.7-59.9,55-107.5,117.6-107.5
		c62.6,0,113.9,47.6,117.6,107.5c2.8-1.4,5.8-2.7,8.7-3.8C573.7,120.1,518.5,71.3,451.1,71.3z"/>
	<path class="st6" d="M451.1,63.8c-68.3,0-125.4,48.9-138.8,113.8c4.3,1,8.4,2.3,12.4,3.8c3.7-61.3,59-110.1,126.4-110.1
		c67.4,0,122.6,48.8,126.4,110.1c4-1.5,8.2-2.8,12.4-3.8C576.5,112.7,519.4,63.8,451.1,63.8z"/>
	<path class="st7" d="M343.7,213.8c-10.4-9.5-23.4-16.3-37.8-19.2c-2.6-0.5-5.3-0.9-8-1.2c-2.7-0.3-5.4-0.4-8.2-0.4
		c-44.3,0-80.2,35.9-80.2,80.2c0,9.7,1.7,19,4.9,27.6c2.2,6.1,5.2,11.9,8.8,17.3c2.2,3.2,4.5,6.2,7.1,9.1
		c14.7,16.1,35.8,26.3,59.4,26.3c33.7,0,62.5-20.8,74.4-50.2h-33.3c-3.5,4.7-7.8,8.9-12.6,12.2c-0.8,0.6-1.6,1.1-2.5,1.6
		c-7.6,4.5-16.5,7.2-26,7.2c-16.5,0-31.3-7.9-40.6-20.2c-0.8-1.1-1.6-2.2-2.3-3.3c-2.5-3.9-4.5-8.3-5.9-12.9h0.1h121.4h6.1h0
		c0.9-4.7,1.4-9.6,1.4-14.6C369.9,249.7,359.8,228.5,343.7,213.8z M217,273.2L217,273.2L217,273.2z M338.5,258.6h-97.6
		c1.6-5.2,4-10.1,7-14.5c0.4-0.5,0.8-1.1,1.2-1.6c3.6-4.8,8.1-8.9,13.2-12.2c0.6-0.4,1.1-0.7,1.7-1.1c4.1-2.4,8.5-4.2,13.1-5.4
		c4-1,8.2-1.6,12.5-1.6c5,0,9.9,0.7,14.5,2.1C320.6,229.2,333.6,242.2,338.5,258.6L338.5,258.6z M362.5,273.2L362.5,273.2
		L362.5,273.2z"/>
	<line class="st8" x1="362.5" y1="273.2" x2="362.5" y2="273.2"/>
	<line class="st8" x1="217" y1="273.2" x2="217" y2="273.2"/>
	<path class="st7" d="M612.5,193c-44.3,0-80.2,35.9-80.2,80.2c0,9.7,1.7,19,4.9,27.6c2.2,6.1,5.2,11.9,8.8,17.3
		c2.2,3.2,4.5,6.2,7.1,9.1c14.7,16.1,35.8,26.3,59.4,26.3c17.9,0,34.4-5.9,47.7-15.8c0.8-0.6,1.6-1.2,2.3-1.8c3-2.4,5.9-5.1,8.6-8
		c0.7-0.7,1.3-1.4,2-2.2c5.8-6.6,10.4-14.2,13.8-22.5h-33.3c-1.2,1.6-2.4,3.1-3.7,4.5c-0.7,0.7-1.3,1.4-2.1,2.1
		c-2.1,2-4.4,3.9-6.8,5.5c-0.8,0.6-1.6,1.1-2.5,1.6c-7.6,4.5-16.5,7.2-26,7.2c-10.1,0-19.5-2.9-27.4-8c-0.6-0.4-1.1-0.7-1.7-1.1
		c-1.1-0.8-2.2-1.6-3.2-2.4c-0.5-0.4-1-0.9-1.5-1.3c-1-0.9-2-1.8-2.9-2.8c-2.3-2.4-4.4-5-6.2-7.9c-2.5-3.9-4.5-8.3-5.9-12.9l-0.1,0
		h118.7h9c0.9-4.7,1.4-9.6,1.4-14.6C692.7,228.9,656.8,193,612.5,193z M536.8,273.2L536.8,273.2L536.8,273.2L536.8,273.2
		L536.8,273.2z M563.7,258.6c6.3-21,25.8-36.3,48.8-36.3c23,0,42.5,15.3,48.8,36.3H563.7z M682.3,273.2L682.3,273.2L682.3,273.2z"/>
	<line class="st8" x1="536.8" y1="273.2" x2="536.8" y2="273.2"/>
	<line class="st8" x1="682.3" y1="273.2" x2="682.3" y2="273.2"/>
	<line class="st8" x1="536.8" y1="273.2" x2="536.8" y2="273.2"/>
	<rect x="473.3" y="148.1" class="st7" width="38.4" height="198.5"/>
	<path class="st7" d="M792.3,199.8L762,308.1l-32-108.3h-42.7l6.4,18.2l0.1,0.4l16.4,46.5l0.2,0.5l30.8,87.6c0.3,1.1-0.6,4-2.5,8.9
		c-1.9,4.8-4,8-6.3,9.6c-2.3,1.6-5.2,2.6-8.6,3.1c-3.4,0.4-7,0.6-10.8,0.4l-4.8-0.3v30.7c4.1,0.3,7.2,0.4,9.3,0.5
		c2.1,0,4.8,0.1,8.2,0.1c17,0,28.3-3.3,34-10c5.7-6.7,13.4-23.9,23.1-51.8l50.3-144.3H792.3z"/>
	<path class="st7" d="M365.6,228.5H377h0.2h8.9v25.4v0.7v37.2v5.2v21.8c0,9.2,2.2,15.9,6.5,20.3c6.6,6.9,19,10.1,37.2,9.4l18.2-0.7
		v-28.7c-1.3,0.1-2.5,0.2-3.8,0.2c-1.3,0-2.5,0.1-3.7,0.1c-7.8,0-12.5-0.7-14-2.2c-1.5-1.5-2.3-5.2-2.3-11.2v-77.6h23.8v-27.3H424
		v-40.9h-38v40.9h-20.5v9.7v0.2V228.5z"/>
	<path class="st7" d="M192,264.7v-1.5V148.1h-59.7L96.5,304.2L60.3,148.1H0v198.5h38.6V212.3c0-3.9,0-9.3-0.1-16.2
		c-0.1-7-0.1-12.3-0.1-16.1l37.3,166.6H116L153.6,180c0,3.8,0,9.1-0.1,16.1c-0.1,7-0.1,12.4-0.1,16.2v134.2H192v-63.4v-1.5V264.7z"
		/>
</g>
</svg>
